<?xml version="1.0" encoding="UTF-8"?>
<svg version="1.1" xmlns="http://www.w3.org/2000/svg" width="875" height="875">
<path d="M0 0 C1.85439381 3.19367823 2.33245816 6.31346523 2.125 9.9375 C0.34282632 15.89664324 -3.3597315 19.83271045 -7.875 23.9375 C-6.81908513 27.18646882 -5.73513365 30.22799165 -4.25 33.3125 C-1.09090987 41.81273221 -1.74861617 52.16177372 -5 60.5 C-9.26350033 69.35126688 -14.95911547 75.32865181 -24.375 78.625 C-35.34382872 81.99438979 -43.98616183 80.98637469 -54.875 77.9375 C-55.205 80.2475 -55.535 82.5575 -55.875 84.9375 C-50.68070697 88.35089257 -46.24408114 88.99821839 -40.12109375 89.3671875 C-39.01830078 89.44066406 -37.91550781 89.51414062 -36.77929688 89.58984375 C-34.49582212 89.73650072 -32.21196075 89.87727496 -29.92773438 90.01171875 C-19.91416791 90.69670475 -9.1177394 91.75544545 -0.875 97.9375 C3.44445968 103.60844706 4.6001017 108.92974988 4.125 115.9375 C1.47334358 123.89246927 -2.11274469 128.24031534 -9.375 132.125 C-20.33020304 137.15383417 -30.00333515 138.20644098 -41.9375 138.3125 C-43.02562988 138.32651855 -44.11375977 138.34053711 -45.23486328 138.35498047 C-55.4199018 138.29507751 -65.3727544 136.85210563 -73.875 130.9375 C-76.09166876 127.61249687 -76.64637913 125.90026172 -76.875 121.9375 C-75.05885066 115.27828575 -71.1296303 112.16574816 -65.875 107.9375 C-64.885 106.9475 -64.885 106.9475 -63.875 105.9375 C-65.050625 104.8546875 -65.050625 104.8546875 -66.25 103.75 C-70.22344089 99.49274191 -71.41321681 95.94504479 -71.2578125 90.05078125 C-70.12211898 83.78128948 -64.94676684 78.59094781 -60.875 73.9375 C-61.473125 73.66550781 -62.07125 73.39351563 -62.6875 73.11328125 C-68.61470776 69.92740708 -71.19709851 64.78672259 -73.25 58.5625 C-76.02622994 48.37524619 -75.74582396 38.13650904 -70.62109375 28.60546875 C-64.58883902 20.00909484 -56.11498436 14.9818785 -45.875 12.9375 C-34.00720047 12.21146991 -24.6436544 14.02137516 -13.875 18.9375 C-11.65598687 14.63000393 -11.57904517 11.60293739 -12.875 6.9375 C-15.3001788 4.94666823 -15.3001788 4.94666823 -17.875 3.9375 C-17.545 2.6175 -17.215 1.2975 -16.875 -0.0625 C-11.02283704 -1.80788193 -5.68171767 -3.21964001 0 0 Z M-45.796875 25.84375 C-49.20916677 32.47051951 -49.21252741 39.53452867 -49.1875 46.8125 C-49.20361328 47.74191406 -49.21972656 48.67132813 -49.23632812 49.62890625 C-49.24149572 57.03923885 -48.35804851 64.34136078 -44.0625 70.5625 C-41.00386706 72.48506928 -39.4205855 72.66108888 -35.875 71.9375 C-29.9047634 66.23863779 -28.56574223 60.06293091 -28.125 51.9375 C-28.08479736 51.19781982 -28.04459473 50.45813965 -28.00317383 49.69604492 C-27.62978787 40.55151898 -27.37890661 30.04260214 -33.875 22.9375 C-38.96711874 20.39144063 -42.2465128 21.58331536 -45.796875 25.84375 Z M-59.5625 112.4375 C-61.99501308 116.3200348 -62.9088759 119.37121476 -61.875 123.9375 C-58.4904148 128.55284345 -55.33167713 129.68505742 -49.875 130.9375 C-39.53073808 132.03821217 -27.59634732 132.23618633 -19.06640625 125.51171875 C-16.89117625 123.23037997 -15.91253295 121.46296124 -15.6875 118.3125 C-17.40321808 114.88106385 -19.39989687 113.34053229 -22.875 111.9375 C-27.17485661 110.86093381 -31.47040471 110.38981637 -35.875 109.9375 C-36.64763184 109.83711426 -37.42026367 109.73672852 -38.21630859 109.63330078 C-49.75800209 107.62457836 -49.75800209 107.62457836 -59.5625 112.4375 Z " fill="#E5A33A" transform="translate(758.875,378.0625)"/>
<path d="M0 0 C3.95344006 2.59867867 6.97138936 5.37136648 9.5 9.375 C10.56011075 14.94058145 10.86619117 19.29855305 8.25 24.4375 C4.92336449 28.22616822 4.92336449 28.22616822 2 29 C-1.25439893 28.86716739 -3.22647958 28.7851523 -5.55859375 26.41796875 C-7.78547057 22.68236781 -8.51164015 18.59580222 -9.4609375 14.40039062 C-10.60886054 9.49035027 -10.60886054 9.49035027 -14 6 C-18.30538919 4.78149362 -20.25636874 4.63519976 -24.3125 6.625 C-27.75436705 9.66664996 -28.72603346 12.18497166 -29.40625 16.69140625 C-29.77996441 28.13641014 -25.15733222 36.07402945 -17.5625 44.25 C-15.71957221 46.17775262 -13.85852657 48.08720988 -12 50 C-10.73850198 51.4274204 -9.48674582 52.86358108 -8.25 54.3125 C-6.12223635 56.77888636 -3.92020214 59.06606021 -1.5625 61.3125 C8.72501308 71.48442305 16.90091548 84.63265196 17.3125 99.3125 C17.1011847 110.16416197 13.8244146 118.71876857 6.40625 126.71875 C-3.4143868 135.79820666 -15.95741556 138.82879662 -29 139 C-39.95330576 138.44368086 -50.94260029 135.86899099 -58.625 127.5 C-62.59003583 122.17052537 -63.8621196 116.54427153 -63 110 C-60.22778257 103.00345125 -60.22778257 103.00345125 -57 101 C-54.27328595 100.58842052 -51.70731559 100.44325365 -49 101 C-46.53130496 103.06175007 -45.522763 104.75487551 -44.68359375 107.8359375 C-44.47669922 108.57070313 -44.26980469 109.30546875 -44.05664062 110.0625 C-43.85232422 110.825625 -43.64800781 111.58875 -43.4375 112.375 C-41.75670314 120.837948 -41.75670314 120.837948 -37 127.3125 C-31.37676458 128.60115812 -26.11993421 128.70664474 -20.625 126.875 C-15.47094128 123.19352948 -13.37751075 118.55110369 -12.2578125 112.484375 C-10.89671803 99.36837378 -16.4711028 90.47470875 -24.35253906 80.52636719 C-28.072249 75.96204985 -32.0587356 71.69245925 -36.125 67.4375 C-47.31578263 55.70030726 -57.45396432 42.81874292 -57.20703125 25.9375 C-56.58520147 17.11455672 -53.33422759 10.19215146 -47 4 C-33.5814488 -6.05852875 -15.11784654 -7.1610852 0 0 Z " fill="#F7CF69" transform="translate(97,358)"/>
<path d="M0 0 C12.43599133 6.30557307 19.91169216 16.1580802 25 29 C32.67359274 52.82852484 35.1982882 82.9600664 24.58203125 106.27734375 C19.47331309 115.06938463 12.45339563 121.78366 2.6875 124.75 C-7.33253447 127.2077443 -17.21881376 126.42169948 -26.5546875 121.7109375 C-35.37155644 116.15957558 -40.77320586 108.91000447 -44 99 C-47.28003009 84.26318234 -46.77603695 68.32495653 -39 55 C-34.35303713 48.59712368 -29.51961498 43.6777925 -22 41 C-20.906875 40.5875 -19.81375 40.175 -18.6875 39.75 C-11.66022623 38.32072398 -4.6819874 38.11049193 2 41 C0.05398272 30.20844964 -4.04683514 18.39307371 -13.01953125 11.43359375 C-18.60620062 7.79552149 -23.24767315 6.34654901 -30 7 C-32.6825892 8.16598862 -35.21292337 9.47927393 -37.765625 10.90625 C-40 12 -40 12 -43 12 C-43.33 10.68 -43.66 9.36 -44 8 C-32.23742884 -3.34653167 -15.17231578 -6.91897137 0 0 Z M-15 54 C-22.11852061 69.53668813 -21.06871509 92.96167762 -16 109 C-13.78053237 112.71305438 -13.78053237 112.71305438 -11 116 C-7.66925632 116.58478294 -7.66925632 116.58478294 -4 116 C2.66803863 110.3927857 3.8367981 101.62206769 4.80810547 93.31591797 C7.07578209 72.3479896 7.07578209 72.3479896 1.51953125 52.9609375 C-1.24481998 50.28812108 -3.35832353 49.14116882 -7.125 48.3125 C-11.15847673 49.27702704 -12.50172646 50.69147559 -15 54 Z " fill="#F0BD56" transform="translate(342,352)"/>
<path d="M0 0 C2.22464347 2.99843251 2.05402998 5.35597807 2 9 C2.4846875 8.55269531 2.969375 8.10539062 3.46875 7.64453125 C11.6177203 0.29478689 18.19155666 -4.46353135 29.40625 -4.265625 C34.56326356 -3.73749711 38.15240818 -1.94395148 41.72265625 1.8125 C52.2678412 15.90729266 51.14221357 38.72311029 48.8515625 55.41015625 C46.88034692 67.22996412 42.35471331 79.09532785 32.80078125 86.765625 C25.18112236 92.09550524 18.23534696 94.46111658 9 95 C8.67 93.68 8.34 92.36 8 91 C9.0725 90.505 10.145 90.01 11.25 89.5 C16.74094185 86.28957029 18.15308119 81.91674279 19.87109375 76 C22.19545469 66.39115859 22.71705527 56.84647672 23 47 C23.04125 45.9275 23.0825 44.855 23.125 43.75 C23.3575146 33.05432827 22.14988805 22.23051875 19 12 C13.30135676 10.66761478 13.30135676 10.66761478 8.125 12.75 C4.6398827 16.4401242 3.74955869 18.51059411 3.71289062 23.49365234 C3.69276917 25.18087906 3.69276917 25.18087906 3.67224121 26.90219116 C3.66696411 28.11782745 3.66168701 29.33346375 3.65625 30.5859375 C3.6416272 31.83500885 3.62700439 33.0840802 3.61193848 34.3710022 C3.56534597 38.37230547 3.5308071 42.37355297 3.5 46.375 C3.45944098 51.63299613 3.40520866 56.89063225 3.34375 62.1484375 C3.3384729 63.36002533 3.3331958 64.57161316 3.32775879 65.81991577 C3.30763733 67.51659897 3.30763733 67.51659897 3.28710938 69.24755859 C3.27981812 70.2400058 3.27252686 71.232453 3.26501465 72.25497437 C2.97807616 75.22708742 2.37802618 77.35335973 1 80 C-4.18639585 83.06949958 -9.02669187 83.82540258 -15 83 C-18.35537627 81.65784949 -20.45789202 80.54210798 -23 78 C-23.27174377 75.19813538 -23.27174377 75.19813538 -23.30297852 71.57836914 C-23.31141785 70.91965317 -23.31985718 70.26093719 -23.32855225 69.58226013 C-23.35438902 67.39988504 -23.366485 65.21764537 -23.37890625 63.03515625 C-23.3950766 61.52061384 -23.4122561 60.00608189 -23.43040466 58.49156189 C-23.47615384 54.49953043 -23.51092264 50.50748504 -23.54260254 46.51531982 C-23.59441311 40.12847556 -23.65963943 33.74178577 -23.73081779 27.35513115 C-23.75365533 25.1221896 -23.76992569 22.88926755 -23.78553772 20.65626526 C-23.79894636 19.28784982 -23.81256133 17.91943638 -23.82641602 16.55102539 C-23.83592789 15.35570694 -23.84543976 14.16038849 -23.85523987 12.92884827 C-23.87146554 9.93725317 -23.87146554 9.93725317 -25 7 C-27.64 7 -30.28 7 -33 7 C-33 5.68 -33 4.36 -33 3 C-24.46698616 -5.21529524 -9.44338921 -7.08254191 0 0 Z " fill="#F2C35C" transform="translate(236,395)"/>
<path d="M0 0 C4.1089073 3.15518187 6.58990092 6.773609 8.23828125 11.71875 C8.35454854 13.57403679 8.41488181 15.4330436 8.44360352 17.29174805 C8.47352135 19.00318245 8.47352135 19.00318245 8.50404358 20.74919128 C8.52075607 21.98051285 8.53746857 23.21183441 8.5546875 24.48046875 C8.5754686 25.74139847 8.59624969 27.00232819 8.61766052 28.3014679 C8.67200247 31.65020458 8.72224291 34.99895205 8.77050781 38.34777832 C8.82078482 41.76641229 8.87643849 45.18495826 8.93164062 48.60351562 C9.03881625 55.30852362 9.14058637 62.01359753 9.23828125 68.71875 C12.6129084 68.17151317 14.32063125 67.66385 17.23828125 65.71875 C18.22828125 67.20375 18.22828125 67.20375 19.23828125 68.71875 C14.58590031 75.06570678 10.07346026 79.04895775 2.23828125 80.71875 C-2.83064315 81.00989588 -6.6413801 80.26873443 -11.19921875 78.03125 C-14.02296504 75.48299115 -15.32999369 73.21852236 -16.76171875 69.71875 C-17.46296875 70.46125 -18.16421875 71.20375 -18.88671875 71.96875 C-25.18553993 77.99370939 -30.75760692 80.2719543 -39.26171875 81.03125 C-46.33445771 80.39975545 -51.8008511 77.91035568 -56.76171875 72.71875 C-60.77521621 65.36067133 -61.20902106 56.38962635 -59.140625 48.28515625 C-55.20235275 39.30589552 -46.4084805 34.37606379 -37.76171875 30.71875 C-35.49357972 29.87811106 -33.22264482 29.04498385 -30.94921875 28.21875 C-26.20274168 26.42067281 -22.73256082 25.02134887 -19.76171875 20.71875 C-18.04804223 16.69533556 -17.66338275 14.36339711 -18.32421875 10.03125 C-20.02270616 6.11734423 -20.96920051 4.69401992 -24.76171875 2.71875 C-30.66891746 1.85091446 -35.7414899 2.24320695 -40.76171875 5.71875 C-41.09171875 6.70875 -41.42171875 7.69875 -41.76171875 8.71875 C-40.99859375 8.96625 -40.23546875 9.21375 -39.44921875 9.46875 C-36.4175379 10.87883412 -35.25358687 11.73501376 -33.76171875 14.71875 C-33.76171875 18.58673147 -34.29748904 20.19990503 -36.88671875 23.09375 C-40.51786779 25.14613859 -42.64297765 25.23359264 -46.76171875 24.71875 C-50.59358271 23.01569935 -52.20840925 21.5643885 -53.76171875 17.71875 C-54.45085134 12.86276922 -54.30124766 8.86255128 -52.19921875 4.40625 C-39.25272801 -9.86808594 -15.65676861 -9.93462145 0 0 Z M-30.76171875 36.71875 C-34.94685468 41.35534374 -35.12873088 46.84064708 -35.19921875 52.84375 C-35.20945068 53.52469727 -35.21968262 54.20564453 -35.23022461 54.90722656 C-35.14975212 59.53298767 -34.29368345 62.84149547 -31.76171875 66.71875 C-28.40579012 68.05535145 -28.40579012 68.05535145 -24.76171875 67.71875 C-21.49110678 65.68370255 -19.90068499 63.92719935 -17.76171875 60.71875 C-17.45268805 57.94120183 -17.45268805 57.94120183 -17.49609375 54.80859375 C-17.49351562 53.65423828 -17.4909375 52.49988281 -17.48828125 51.31054688 C-17.49601562 50.10462891 -17.50375 48.89871094 -17.51171875 47.65625 C-17.50398438 46.44646484 -17.49625 45.23667969 -17.48828125 43.99023438 C-17.49085938 42.83716797 -17.4934375 41.68410156 -17.49609375 40.49609375 C-17.49834961 39.43640381 -17.50060547 38.37671387 -17.50292969 37.28491211 C-17.50505939 34.55368351 -17.50505939 34.55368351 -19.76171875 32.71875 C-24.4137322 32.71875 -27.21019544 33.85116273 -30.76171875 36.71875 Z " fill="#F5C962" transform="translate(182.76171875,397.28125)"/>
<path d="M0 0 C4.1089073 3.15518187 6.58990092 6.773609 8.23828125 11.71875 C8.35454854 13.57403679 8.41488181 15.4330436 8.44360352 17.29174805 C8.47352135 19.00318245 8.47352135 19.00318245 8.50404358 20.74919128 C8.52075607 21.98051285 8.53746857 23.21183441 8.5546875 24.48046875 C8.5754686 25.74139847 8.59624969 27.00232819 8.61766052 28.3014679 C8.67200247 31.65020458 8.72224291 34.99895205 8.77050781 38.34777832 C8.82078482 41.76641229 8.87643849 45.18495826 8.93164062 48.60351562 C9.03881625 55.30852362 9.14058637 62.01359753 9.23828125 68.71875 C12.6129084 68.17151317 14.32063125 67.66385 17.23828125 65.71875 C18.22828125 67.20375 18.22828125 67.20375 19.23828125 68.71875 C14.58590031 75.06570678 10.07346026 79.04895775 2.23828125 80.71875 C-2.83064315 81.00989588 -6.6413801 80.26873443 -11.19921875 78.03125 C-14.02296504 75.48299115 -15.32999369 73.21852236 -16.76171875 69.71875 C-17.46296875 70.46125 -18.16421875 71.20375 -18.88671875 71.96875 C-25.18553993 77.99370939 -30.75760692 80.2719543 -39.26171875 81.03125 C-46.33445771 80.39975545 -51.8008511 77.91035568 -56.76171875 72.71875 C-60.77521621 65.36067133 -61.20902106 56.38962635 -59.140625 48.28515625 C-55.20235275 39.30589552 -46.4084805 34.37606379 -37.76171875 30.71875 C-35.49357972 29.87811106 -33.22264482 29.04498385 -30.94921875 28.21875 C-26.20274168 26.42067281 -22.73256082 25.02134887 -19.76171875 20.71875 C-18.04804223 16.69533556 -17.66338275 14.36339711 -18.32421875 10.03125 C-20.02270616 6.11734423 -20.96920051 4.69401992 -24.76171875 2.71875 C-30.66891746 1.85091446 -35.7414899 2.24320695 -40.76171875 5.71875 C-41.09171875 6.70875 -41.42171875 7.69875 -41.76171875 8.71875 C-40.99859375 8.96625 -40.23546875 9.21375 -39.44921875 9.46875 C-36.4175379 10.87883412 -35.25358687 11.73501376 -33.76171875 14.71875 C-33.76171875 18.58673147 -34.29748904 20.19990503 -36.88671875 23.09375 C-40.51786779 25.14613859 -42.64297765 25.23359264 -46.76171875 24.71875 C-50.59358271 23.01569935 -52.20840925 21.5643885 -53.76171875 17.71875 C-54.46249692 12.78070847 -54.31730276 8.82991802 -52.07421875 4.34375 C-39.41081398 -10.03092569 -15.43066912 -9.79115552 0 0 Z M-30.76171875 36.71875 C-34.94685468 41.35534374 -35.12873088 46.84064708 -35.19921875 52.84375 C-35.20945068 53.52469727 -35.21968262 54.20564453 -35.23022461 54.90722656 C-35.14975212 59.53298767 -34.29368345 62.84149547 -31.76171875 66.71875 C-28.40579012 68.05535145 -28.40579012 68.05535145 -24.76171875 67.71875 C-21.49110678 65.68370255 -19.90068499 63.92719935 -17.76171875 60.71875 C-17.45268805 57.94120183 -17.45268805 57.94120183 -17.49609375 54.80859375 C-17.49351562 53.65423828 -17.4909375 52.49988281 -17.48828125 51.31054688 C-17.49601563 50.10462891 -17.50375 48.89871094 -17.51171875 47.65625 C-17.50398437 46.44646484 -17.49625 45.23667969 -17.48828125 43.99023438 C-17.49085938 42.83716797 -17.4934375 41.68410156 -17.49609375 40.49609375 C-17.49834961 39.43640381 -17.50060547 38.37671387 -17.50292969 37.28491211 C-17.50505939 34.55368351 -17.50505939 34.55368351 -19.76171875 32.71875 C-24.4137322 32.71875 -27.21019544 33.85116273 -30.76171875 36.71875 Z " fill="#E7A940" transform="translate(658.76171875,397.28125)"/>
<path d="M0 0 C3.51847455 2.77774307 5.11722622 5.72193166 5.65672302 10.22810555 C5.77980273 13.13635119 5.80315162 16.03078125 5.79492188 18.94165039 C5.80339142 20.04640213 5.81186096 21.15115387 5.82058716 22.28938293 C5.8439492 25.93392506 5.84497965 29.57804497 5.84375 33.22265625 C5.85085067 35.75801258 5.85854952 38.29336731 5.86682129 40.82872009 C5.88026333 46.13887632 5.88201684 51.4488769 5.87597656 56.7590332 C5.86932898 62.89182959 5.89223532 69.02402558 5.92929029 75.15670019 C5.96369754 81.06632498 5.97032368 86.97576459 5.96620178 92.88549614 C5.96789669 95.39615101 5.97757459 97.90681354 5.99534607 100.41740608 C6.01744561 103.9246728 6.00787884 107.43048302 5.99023438 110.93774414 C6.00349762 111.97632568 6.01676086 113.01490723 6.03042603 114.08496094 C5.94794377 121.13030146 5.94794377 121.13030146 2.96398926 125.0087738 C-1.81601274 128.454352 -6.87753335 128.442774 -12.625 127.875 C-16.69162662 126.32228802 -18.20019602 125.51220598 -20.625 121.875 C-20.8811264 119.79632568 -20.8811264 119.79632568 -20.89001465 117.35839844 C-20.89828781 116.43305298 -20.90656097 115.50770752 -20.91508484 114.55432129 C-20.91410294 113.54123901 -20.91312103 112.52815674 -20.91210938 111.484375 C-20.91894241 110.41586304 -20.92577545 109.34735107 -20.93281555 108.24645996 C-20.94641782 105.92364614 -20.95546192 103.60080223 -20.96052551 101.2779541 C-20.96879403 97.60544314 -20.98927949 93.9331833 -21.01306152 90.26074219 C-21.06956067 81.13986476 -21.10471165 72.01892641 -21.14068604 62.89794922 C-21.17188514 55.19283875 -21.21104436 47.48784968 -21.26094055 39.78283691 C-21.28106528 36.15826828 -21.28933988 32.53379266 -21.29724121 28.90917969 C-21.31020933 26.69465798 -21.323729 24.4801394 -21.33789062 22.265625 C-21.33690872 21.25254272 -21.33592682 20.23946045 -21.33491516 19.19567871 C-21.34318832 18.27033325 -21.35146149 17.34498779 -21.35998535 16.39160156 C-21.36438503 15.18482758 -21.36438503 15.18482758 -21.3688736 13.95367432 C-21.50486116 11.56902543 -21.50486116 11.56902543 -23.625 8.875 C-25.935 9.205 -28.245 9.535 -30.625 9.875 C-30.625 8.555 -30.625 7.235 -30.625 5.875 C-29.0859375 4.4609375 -29.0859375 4.4609375 -27 3.25 C-26.32710937 2.84523438 -25.65421875 2.44046875 -24.9609375 2.0234375 C-17.06718518 -1.85743739 -8.43467548 -2.61765791 0 0 Z " fill="#E9AD45" transform="translate(580.625,350.125)"/>
<path d="M0 0 C3.51847455 2.77774307 5.11722622 5.72193166 5.65672302 10.22810555 C5.77980273 13.13635119 5.80315162 16.03078125 5.79492188 18.94165039 C5.80339142 20.04640213 5.81186096 21.15115387 5.82058716 22.28938293 C5.8439492 25.93392506 5.84497965 29.57804497 5.84375 33.22265625 C5.85085067 35.75801258 5.85854952 38.29336731 5.86682129 40.82872009 C5.88026333 46.13887632 5.88201684 51.4488769 5.87597656 56.7590332 C5.86932898 62.89182959 5.89223532 69.02402558 5.92929029 75.15670019 C5.96369754 81.06632498 5.97032368 86.97576459 5.96620178 92.88549614 C5.96789669 95.39615101 5.97757459 97.90681354 5.99534607 100.41740608 C6.01744561 103.9246728 6.00787884 107.43048302 5.99023438 110.93774414 C6.00349762 111.97632568 6.01676086 113.01490723 6.03042603 114.08496094 C5.94794377 121.13030146 5.94794377 121.13030146 2.96398926 125.0087738 C-1.81601274 128.454352 -6.87753335 128.442774 -12.625 127.875 C-16.69162662 126.32228802 -18.20019602 125.51220598 -20.625 121.875 C-20.8811264 119.79632568 -20.8811264 119.79632568 -20.89001465 117.35839844 C-20.89828781 116.43305298 -20.90656097 115.50770752 -20.91508484 114.55432129 C-20.91410294 113.54123901 -20.91312103 112.52815674 -20.91210938 111.484375 C-20.91894241 110.41586304 -20.92577545 109.34735107 -20.93281555 108.24645996 C-20.94641782 105.92364614 -20.95546192 103.60080223 -20.96052551 101.2779541 C-20.96879403 97.60544314 -20.98927949 93.9331833 -21.01306152 90.26074219 C-21.06956067 81.13986476 -21.10471165 72.01892641 -21.14068604 62.89794922 C-21.17188514 55.19283875 -21.21104436 47.48784968 -21.26094055 39.78283691 C-21.28106528 36.15826828 -21.28933988 32.53379266 -21.29724121 28.90917969 C-21.31020933 26.69465798 -21.323729 24.4801394 -21.33789062 22.265625 C-21.33690872 21.25254272 -21.33592682 20.23946045 -21.33491516 19.19567871 C-21.34318832 18.27033325 -21.35146149 17.34498779 -21.35998535 16.39160156 C-21.36438503 15.18482758 -21.36438503 15.18482758 -21.3688736 13.95367432 C-21.50486116 11.56902543 -21.50486116 11.56902543 -23.625 8.875 C-25.935 9.205 -28.245 9.535 -30.625 9.875 C-30.625 8.555 -30.625 7.235 -30.625 5.875 C-29.0859375 4.4609375 -29.0859375 4.4609375 -27 3.25 C-26.32710938 2.84523438 -25.65421875 2.44046875 -24.9609375 2.0234375 C-17.06718518 -1.85743739 -8.43467548 -2.61765791 0 0 Z " fill="#EAB048" transform="translate(534.625,350.125)"/>
<path d="M0 0 C3.22222804 3.50189311 4.60963904 6.1556779 5.5 10.8125 C5.73847656 12.03453125 5.97695313 13.2565625 6.22265625 14.515625 C7.01457491 18.96849401 7.71609098 23.43566303 8.4296875 27.90161133 C10.83532951 46.01661629 10.83532951 46.01661629 19 62 C21.31 61.67 23.62 61.34 26 61 C26.66769439 59.33374479 27.33413067 57.66698538 28 56 C28.495 54.77603516 28.495 54.77603516 29 53.52734375 C35.0584707 37.83685128 35.84244756 22.15844531 30.77734375 6.14453125 C30.0377064 3.1525309 29.78897315 1.78404541 31 -1 C34.54358483 -3.83486786 38.70137613 -3.34666322 43 -3 C50.57158858 8.35738286 46.07509356 29.91897186 43.55224609 42.55078125 C41.10793414 53.39133717 37.55884086 63.93231291 31 73 C30.59007812 73.59039062 30.18015625 74.18078125 29.7578125 74.7890625 C26.13918092 79.59025342 21.65167369 82.11610877 16 84 C9.56291897 84.5048691 4.47488732 83.42121181 -0.81640625 79.734375 C-16.05039934 66.2384885 -18.27220686 41.19436306 -20.65698242 22.43115234 C-20.80498291 21.2808252 -20.9529834 20.13049805 -21.10546875 18.9453125 C-21.23074951 17.91937988 -21.35603027 16.89344727 -21.48510742 15.83642578 C-21.99892703 13.00591076 -22.83638852 10.62331649 -24 8 C-26.64 8 -29.28 8 -32 8 C-32 6.68 -32 5.36 -32 4 C-30.08588443 3.01585567 -28.1686033 2.03786651 -26.25 1.0625 C-25.18265625 0.51722656 -24.1153125 -0.02804687 -23.015625 -0.58984375 C-15.66502312 -4.02710706 -6.91101867 -4.77189384 0 0 Z " fill="#EDB850" transform="translate(407,394)"/>
<path d="M0 0 C3.49412249 3.5968908 4.94077587 6.71370695 5.5625 11.6875 C4.92087084 16.82053332 2.77714047 19.75759532 -1.09472656 23.10864258 C-4.1624182 25.40240744 -7.35715022 27.35592018 -10.671875 29.26171875 C-11.30611389 29.63102005 -11.94035278 30.00032135 -12.59381104 30.3808136 C-14.6020103 31.54937489 -16.61330082 32.71247602 -18.625 33.875 C-20.65045538 35.0491109 -22.67522863 36.22437148 -24.69903564 37.40132141 C-25.9544306 38.131028 -27.21087163 38.85893845 -28.46844482 39.58488464 C-31.34002826 41.15540775 -31.34002826 41.15540775 -33.875 43.1875 C-33.58345442 51.35077631 -30.6215923 57.92849235 -24.625 63.5625 C-20.0444441 67.10426892 -15.29345503 69.26941186 -9.4296875 69.12890625 C-2.69448842 68.10490263 2.54611046 64.96215292 8.125 61.1875 C8.785 62.5075 9.445 63.8275 10.125 65.1875 C0.78340092 75.8029535 -9.10483453 80.97527456 -23.109375 82.06640625 C-33.28995377 82.39379001 -41.14513797 78.83377584 -49.625 73.4375 C-57.74546282 65.31703718 -62.24038394 54.56333226 -62.91015625 43.14453125 C-62.74077492 28.89767897 -58.96390014 17.5727607 -49.0625 7.30859375 C-35.99381233 -4.89060462 -15.82007699 -9.9735268 0 0 Z M-29.875 7.1875 C-36.46865073 14.67576666 -36.32679945 25.74991153 -35.875 35.1875 C-33.45605155 33.92086157 -31.03986225 32.64938664 -28.625 31.375 C-27.60212891 30.84036133 -27.60212891 30.84036133 -26.55859375 30.29492188 C-21.42850827 27.66442818 -21.42850827 27.66442818 -16.875 24.1875 C-15.57180904 18.6023959 -15.63305947 14.58853854 -17.875 9.1875 C-20.22918376 6.24776719 -20.22918376 6.24776719 -22.875 4.1875 C-25.85167749 4.1875 -27.44543371 5.528284 -29.875 7.1875 Z " fill="#E39E34" transform="translate(829.875,395.8125)"/>
<path d="M0 0 C4.13620608 4.42146167 4.12638495 8.75269244 4.14526367 14.61694336 C4.14862228 15.2727388 4.1519809 15.92853424 4.15544128 16.60420227 C4.16491873 18.76610218 4.16689269 20.92792438 4.16796875 23.08984375 C4.17118325 24.59672579 4.17454747 26.10360751 4.17805481 27.61048889 C4.18403782 30.76694462 4.18589553 33.92337299 4.18530273 37.07983398 C4.18520109 41.1193933 4.19885957 45.15877696 4.21607494 49.19829464 C4.22720611 52.30986839 4.22922161 55.42139979 4.22869301 58.53299141 C4.22987119 60.02209644 4.23428393 61.51120263 4.24202538 63.00028801 C4.2518492 65.08487051 4.24893815 67.16907318 4.24291992 69.25366211 C4.24434494 70.43850693 4.24576996 71.62335175 4.24723816 72.84410095 C3.99766482 76.02980762 3.50741279 78.1912667 2 81 C-3.18639585 84.06949958 -8.02669187 84.82540258 -14 84 C-17.35537627 82.65784949 -19.45789202 81.54210798 -22 79 C-22.27174377 76.19813538 -22.27174377 76.19813538 -22.30297852 72.57836914 C-22.31141785 71.91965317 -22.31985718 71.26093719 -22.32855225 70.58226013 C-22.35438902 68.39988504 -22.366485 66.21764537 -22.37890625 64.03515625 C-22.3950766 62.52061384 -22.4122561 61.00608189 -22.43040466 59.49156189 C-22.47615384 55.49953043 -22.51092264 51.50748504 -22.54260254 47.51531982 C-22.59441311 41.12847556 -22.65963943 34.74178577 -22.73081779 28.35513115 C-22.75365533 26.1221896 -22.76992569 23.88926755 -22.78553772 21.65626526 C-22.79894636 20.28784982 -22.81256133 18.91943638 -22.82641602 17.55102539 C-22.83592789 16.35570694 -22.84543976 15.16038849 -22.85523987 13.92884827 C-22.87146554 10.93725317 -22.87146554 10.93725317 -24 8 C-26.64 8 -29.28 8 -32 8 C-32 6.68 -32 5.36 -32 4 C-24.16723936 -3.54111529 -9.11939955 -6.22788262 0 0 Z " fill="#ECB44B" transform="translate(490,394)"/>
<path d="M0 0 C0.75087891 -0.02900391 1.50175781 -0.05800781 2.27539062 -0.08789062 C6.1904206 -0.1326535 8.11934419 0.03938558 11.53515625 2.14453125 C14.11405695 4.90231524 14.5625 6.55576495 14.5625 10.3125 C13.125 12.6875 13.125 12.6875 11.5625 14.3125 C12.3875 14.951875 13.2125 15.59125 14.0625 16.25 C17.00480078 19.85431846 17.31442341 21.63667012 17.05078125 26.15625 C16.24507437 29.7142516 14.46877825 31.24581324 11.5625 33.3125 C9.25 34.125 9.25 34.125 6.5625 34.3125 C5.92957031 34.36277344 5.29664063 34.41304687 4.64453125 34.46484375 C0.0044094 34.68248549 -2.62982108 34.25572457 -6.4375 31.3125 C-7.09692383 28.4934082 -7.09692383 28.4934082 -7.14453125 25.11328125 C-7.17353516 23.90478516 -7.20253906 22.69628906 -7.23242188 21.45117188 C-7.23822266 20.18853516 -7.24402344 18.92589844 -7.25 17.625 C-7.27513672 16.35076172 -7.30027344 15.07652344 -7.32617188 13.76367188 C-7.38517376 10.61297142 -7.42135966 7.46366452 -7.4375 4.3125 C-10.42902582 5.08729736 -10.42902582 5.08729736 -13.4375 6.3125 C-13.7675 7.3025 -14.0975 8.2925 -14.4375 9.3125 C-12.7875 8.9825 -11.1375 8.6525 -9.4375 8.3125 C-8.3125 12.0625 -8.3125 12.0625 -9.4375 14.3125 C-11.77044775 14.35491723 -14.10452567 14.35342937 -16.4375 14.3125 C-17.4375 13.3125 -17.4375 13.3125 -17.8125 9.5 C-17.77542702 6.05221293 -17.65590095 5.54910102 -15.1875 2.875 C-10.28029367 0.08681459 -5.55860135 0.07120326 0 0 Z M1.5625 3.3125 C1.5625 6.9425 1.5625 10.5725 1.5625 14.3125 C2.8825 13.9825 4.2025 13.6525 5.5625 13.3125 C6.94375018 10.54999964 6.75329306 8.36518901 6.5625 5.3125 C5.9025 4.6525 5.2425 3.9925 4.5625 3.3125 C3.5725 3.3125 2.5825 3.3125 1.5625 3.3125 Z M1.5625 16.3125 C1.5625 20.9325 1.5625 25.5525 1.5625 30.3125 C2.8825 30.6425 4.2025 30.9725 5.5625 31.3125 C7.71228703 28.98356405 8.52498682 27.53288995 9.0625 24.375 C8.3972468 20.30032416 6.71832058 18.8672119 3.5625 16.3125 C2.9025 16.3125 2.2425 16.3125 1.5625 16.3125 Z " fill="#F7CF6A" transform="translate(239.4375,511.6875)"/>
<path d="M0 0 C2.27734375 1.3671875 2.27734375 1.3671875 4 3 C4.375 5.5625 4.375 5.5625 4 8 C3.34 8.66 2.68 9.32 2 10 C-0.125 9.625 -0.125 9.625 -2 9 C-2.33 7.02 -2.66 5.04 -3 3 C-6.90604537 4.26682552 -8.90166803 5.43283565 -11 9 C-12.69953965 14.47368978 -12.58414567 20.45100073 -11.3125 26 C-9.57849169 28.64229838 -8.0036696 29.17399086 -5 30 C-4.34 30 -3.68 30 -3 30 C-3 26.7 -3 23.4 -3 20 C-4.32 20 -5.64 20 -7 20 C-7 19.01 -7 18.02 -7 17 C-2.38 17 2.24 17 7 17 C7 17.99 7 18.98 7 20 C6.01 20 5.02 20 4 20 C4.05220703 21.64548828 4.05220703 21.64548828 4.10546875 23.32421875 C4.13361865 24.77863045 4.16091752 26.2330588 4.1875 27.6875 C4.21263672 28.40873047 4.23777344 29.12996094 4.26367188 29.87304688 C4.32684976 34.48503222 3.90481848 37.3771365 1 41 C-1.89921761 43.72974351 -4.1254914 44.4621478 -8.0625 44.8125 C-8.91972656 44.90144531 -9.77695312 44.99039063 -10.66015625 45.08203125 C-13 45 -13 45 -16 43 C-16 41.68 -16 40.36 -16 39 C-15.01 39 -14.02 39 -13 39 C-12.67 39.66 -12.34 40.32 -12 41 C-9.58354218 41.16687448 -9.58354218 41.16687448 -7 41 C-4.8614515 38.8614515 -4.57344937 37.86724686 -4 35 C-4.66386719 34.90203125 -5.32773437 34.8040625 -6.01171875 34.703125 C-15.43275381 33.10773804 -15.43275381 33.10773804 -19 29 C-22.44552522 23.16287492 -22.53678272 17.49688142 -21 11 C-19.33262021 6.26824655 -16.63171583 2.94383493 -12.06640625 0.65625 C-8.12404669 -0.59576589 -4.05742245 -0.75439513 0 0 Z " fill="#F3C45D" transform="translate(337,512)"/>
<path d="M0 0 C0.66 0.66 1.32 1.32 2 2 C2.99 1.34 3.98 0.68 5 0 C9.07490752 -0.33957563 10.53001271 -0.31332486 14 2 C14.66 1.34 15.32 0.68 16 0 C21.33333333 -0.33333333 21.33333333 -0.33333333 24 1 C25.37383781 5.12151342 25.384087 9.2461362 25.60546875 13.55078125 C25.77880744 16.58121967 26.03448616 19.10345849 27 22 C23.77626323 24.14915785 22.73296326 24.38286803 19 24 C15.97906785 20.97906785 16.53323166 17.43627928 16.375 13.375 C16.33632813 12.57320312 16.29765625 11.77140625 16.2578125 10.9453125 C16.16346069 8.96392444 16.08063785 6.98199355 16 5 C15.01 5.495 15.01 5.495 14 6 C13.67 11.61 13.34 17.22 13 23 C11.02 23.33 9.04 23.66 7 24 C3.97906785 20.97906785 4.53323166 17.43627928 4.375 13.375 C4.33632813 12.57320312 4.29765625 11.77140625 4.2578125 10.9453125 C4.16346069 8.96392444 4.08063785 6.98199355 4 5 C3.01 5.495 3.01 5.495 2 6 C1.93941406 7.21558594 1.87882813 8.43117188 1.81640625 9.68359375 C1.73201668 11.26824228 1.6473679 12.85287702 1.5625 14.4375 C1.50352539 15.64116211 1.50352539 15.64116211 1.44335938 16.86914062 C1.11328125 22.88671875 1.11328125 22.88671875 0 24 C-2.5 24.125 -2.5 24.125 -5 24 C-6.54950268 22.45049732 -6.21655193 20.90009406 -6.31640625 18.74609375 C-6.35830078 17.89208984 -6.40019531 17.03808594 -6.44335938 16.15820312 C-6.48267578 15.26037109 -6.52199219 14.36253906 -6.5625 13.4375 C-6.62727539 12.08495117 -6.62727539 12.08495117 -6.69335938 10.70507812 C-6.79978142 8.47021515 -6.90179988 6.23523692 -7 4 C-7.66 3.67 -8.32 3.34 -9 3 C-9 2.34 -9 1.68 -9 1 C-5.98675805 -0.50662097 -3.31713623 -0.17770373 0 0 Z " fill="#E7A93F" transform="translate(541,522)"/>
<path d="M0 0 C2.5625 2 2.5625 2 4 4 C3.67 4.99 3.34 5.98 3 7 C1.68 7 0.36 7 -1 7 C-1 5.68 -1 4.36 -1 3 C-1.99 3.33 -2.98 3.66 -4 4 C-5.00478037 5.8522367 -5.00478037 5.8522367 -5 8 C-3.47698387 9.9581636 -2.21773977 10.89113011 0 12 C0 12.66 0 13.32 0 14 C-1.134375 14.45375 -2.26875 14.9075 -3.4375 15.375 C-7.04721692 16.57095806 -7.04721692 16.57095806 -8 19 C-8.46588282 24.88165736 -8.46588282 24.88165736 -6 30 C-4.35 29.67 -2.7 29.34 -1 29 C-0.67 26.69 -0.34 24.38 0 22 C-0.33 22 -0.66 22 -1 22 C-1 22.99 -1 23.98 -1 25 C-2.32 25.33 -3.64 25.66 -5 26 C-6.0625 24.1875 -6.0625 24.1875 -7 22 C-6 19 -6 19 -3.9375 17.9375 C-0.32138285 16.78342006 3.30646946 15.87643098 7 15 C7 14.34 7 13.68 7 13 C6.01 13 5.02 13 4 13 C3.957279 11.33388095 3.95936168 9.66617115 4 8 C4.33 7.67 4.66 7.34 5 7 C7.33944736 7.28730055 9.6739143 7.61936779 12 8 C13.0250719 11.26159241 13.2176205 12.55439611 11.6875 15.6875 C10 18 10 18 8 20 C8.020625 20.928125 8.04125 21.85625 8.0625 22.8125 C7.98844285 26.58941454 7.36760268 28.07995669 5 31 C0.5963287 33.90241972 -2.77533951 34.54996426 -8 34 C-12.24814405 32.72555678 -14.37567538 31.85844635 -17 28.25 C-18.21979581 24.28566362 -18.08945499 21.9946683 -17 18 C-15.0625 15.0625 -15.0625 15.0625 -13 13 C-12.34 13 -11.68 13 -11 13 C-11.495 12.195625 -11.495 12.195625 -12 11.375 C-13.2766188 8.34303035 -13.41616519 6.25996064 -13 3 C-9.8842245 -1.064055 -4.68927069 -0.81739581 0 0 Z " fill="#EDB850" transform="translate(428,512)"/>
<path d="M0 0 C3.13296482 1.57970167 5.01354497 3.27270973 7.0390625 6.12109375 C8.30761441 10.16460295 8.34129012 12.25721892 7.0390625 16.30859375 C4.13297033 20.04380155 0.79592854 22.50829525 -3.8984375 23.37109375 C-8.33377931 23.59501392 -12.1684872 22.62433774 -15.9609375 20.30859375 C-18.6555524 17.27715199 -19.79566993 15.30019914 -20.4609375 11.30859375 C-19.8084308 7.39355357 -18.51762904 5.33625479 -15.9609375 2.30859375 C-10.98451274 -1.08442313 -5.69715265 -2.00875701 0 0 Z " fill="#ECB34C" transform="translate(484.9609375,361.69140625)"/>
<path d="M0 0 C3.19978722 2.53316489 5.72892848 4.77810233 6.23828125 8.953125 C6.41865824 14.53531802 5.69038578 17.54982892 2 22 C1.34 22.66 0.68 23.32 0 24 C5.54891215 26.81849506 9.741346 28.5326514 16 28 C15.125 32.875 15.125 32.875 14 34 C6.92999959 34.95173082 2.29266738 32.5418351 -3.94921875 29.3125 C-6.95685732 28.01856074 -8.77861117 27.71312307 -12 28 C-11.7525 27.113125 -11.505 26.22625 -11.25 25.3125 C-11.1675 24.219375 -11.085 23.12625 -11 22 C-11.639375 21.2575 -12.27875 20.515 -12.9375 19.75 C-15.98416352 15.68778197 -15.67943234 11.91779601 -15 7 C-11.98105783 0.09956075 -7.03641149 -1.24680274 0 0 Z M-5 3 C-7.77809395 5.77809395 -7.29955703 7.56755203 -7.3125 11.4375 C-7.32925781 12.59121094 -7.34601563 13.74492188 -7.36328125 14.93359375 C-7.27252796 18.00123052 -7.27252796 18.00123052 -5.48046875 19.91015625 C-4.99191406 20.26980469 -4.50335938 20.62945313 -4 21 C-1.6202766 17.43041489 -1.70169659 15.67281698 -1.6875 11.4375 C-1.67074219 10.28121094 -1.65398437 9.12492188 -1.63671875 7.93359375 C-1.75660156 6.96550781 -1.87648438 5.99742187 -2 5 C-2.99 4.34 -3.98 3.68 -5 3 Z " fill="#F4C962" transform="translate(297,522)"/>
<path d="M0 0 C2.5625 1.1875 2.5625 1.1875 4 3 C4.25 5.6875 4.25 5.6875 4 8 C2.35 8.33 0.7 8.66 -1 9 C-1.33 7.02 -1.66 5.04 -2 3 C-2.99 3.33 -3.98 3.66 -5 4 C-6.41008288 7.08012308 -6.41008288 7.08012308 -4.5 10.1875 C-2.23503944 13.92269812 0.56558224 17.08968171 3.51171875 20.30078125 C6.19023657 23.35893151 6.33987555 25.92700867 6.28125 29.96484375 C5.83009301 33.22946589 4.38122136 34.81185064 2 37 C-2.45855592 39.80252086 -7.05712425 39.10661397 -12 38 C-14.5625 36.8125 -14.5625 36.8125 -16 35 C-16.25 31.8125 -16.25 31.8125 -16 29 C-14.35 28.67 -12.7 28.34 -11 28 C-10.731875 28.969375 -10.46375 29.93875 -10.1875 30.9375 C-9.795625 31.948125 -9.40375 32.95875 -9 34 C-8.01 34.33 -7.02 34.66 -6 35 C-4.31318262 33.89958081 -4.31318262 33.89958081 -3 32 C-3.24485016 26.7616905 -5.10739036 24.13647053 -8.5 20.25 C-14.4583784 13.34884021 -14.4583784 13.34884021 -14.33203125 7.04296875 C-14 5 -14 5 -12.0625 2 C-7.95066687 -0.68527878 -4.78220797 -0.81190471 0 0 Z " fill="#EBB34B" transform="translate(467,512)"/>
<path d="M0 0 C0.33 3.3 0.66 6.6 1 10 C2.60875 9.87625 2.60875 9.87625 4.25 9.75 C8 10 8 10 10.375 11.875 C12.93914002 15.22810618 13.15946269 17.191834 13.1875 21.375 C13.20167969 22.33148437 13.21585938 23.28796875 13.23046875 24.2734375 C12.8988507 28.1966476 11.88066374 30.22608338 8.9375 32.8125 C4.89738576 34.44573767 1.11502066 34.53117048 -3 33 C-6.48404641 29.38299637 -7.50694798 27.03628587 -7.609375 22.04296875 C-7.64160156 20.93115234 -7.67382812 19.81933594 -7.70703125 18.67382812 C-7.72121094 17.52333984 -7.73539063 16.37285156 -7.75 15.1875 C-7.77964844 14.01767578 -7.80929687 12.84785156 -7.83984375 11.64257812 C-7.91039709 8.76164991 -7.96316729 5.88152422 -8 3 C-8.66 2.67 -9.32 2.34 -10 2 C-9.67 1.01 -9.34 0.02 -9 -1 C-5.52718036 -2.61238055 -3.32673591 -1.57095862 0 0 Z M2 13 C-0.24112088 14.82302652 -0.24112088 14.82302652 -0.265625 17.4609375 C-0.26046875 18.42257812 -0.2553125 19.38421875 -0.25 20.375 C-0.25515625 21.33148437 -0.2603125 22.28796875 -0.265625 23.2734375 C0.00103136 26.01058658 0.60257913 27.65987457 2 30 C2.99 29.67 3.98 29.34 5 29 C6.00818056 23.25337081 6.12039324 19.46838257 4 14 C3.34 13.67 2.68 13.34 2 13 Z " fill="#E5A53B" transform="translate(577,512)"/>
<path d="M0 0 C0.33 3.3 0.66 6.6 1 10 C2.60875 9.87625 2.60875 9.87625 4.25 9.75 C8 10 8 10 10.375 11.875 C12.93914002 15.22810618 13.15946269 17.191834 13.1875 21.375 C13.20167969 22.33148437 13.21585937 23.28796875 13.23046875 24.2734375 C12.8988507 28.1966476 11.88066374 30.22608338 8.9375 32.8125 C4.89738576 34.44573767 1.11502066 34.53117048 -3 33 C-6.48404641 29.38299637 -7.50694798 27.03628587 -7.609375 22.04296875 C-7.64160156 20.93115234 -7.67382812 19.81933594 -7.70703125 18.67382812 C-7.72121094 17.52333984 -7.73539062 16.37285156 -7.75 15.1875 C-7.77964844 14.01767578 -7.80929687 12.84785156 -7.83984375 11.64257812 C-7.91039709 8.76164991 -7.96316729 5.88152422 -8 3 C-8.66 2.67 -9.32 2.34 -10 2 C-9.67 1.01 -9.34 0.02 -9 -1 C-5.52718036 -2.61238055 -3.32673591 -1.57095862 0 0 Z M2 13 C-0.24112088 14.82302652 -0.24112088 14.82302652 -0.265625 17.4609375 C-0.26046875 18.42257812 -0.2553125 19.38421875 -0.25 20.375 C-0.25515625 21.33148437 -0.2603125 22.28796875 -0.265625 23.2734375 C0.00103136 26.01058658 0.60257913 27.65987457 2 30 C2.99 29.67 3.98 29.34 5 29 C6.00818056 23.25337081 6.12039324 19.46838257 4 14 C3.34 13.67 2.68 13.34 2 13 Z " fill="#F6CC66" transform="translate(266,512)"/>
<path d="M0 0 C0.66 0.66 1.32 1.32 2 2 C2.66 1.34 3.32 0.68 4 0 C7.22265625 -0.23046875 7.22265625 -0.23046875 11.0625 -0.1875 C12.96708984 -0.17783203 12.96708984 -0.17783203 14.91015625 -0.16796875 C18 0 18 0 19 1 C19.0991657 2.62257544 19.13079777 4.24939831 19.1328125 5.875 C19.13474609 7.35226562 19.13474609 7.35226562 19.13671875 8.859375 C19.13285156 9.89578125 19.12898438 10.9321875 19.125 12 C19.13080078 13.55460938 19.13080078 13.55460938 19.13671875 15.140625 C19.13542969 16.12546875 19.13414062 17.1103125 19.1328125 18.125 C19.13168457 19.03507813 19.13055664 19.94515625 19.12939453 20.8828125 C19 23 19 23 18 24 C15.5 24.125 15.5 24.125 13 24 C11.45049732 22.45049732 11.78344807 20.90009406 11.68359375 18.74609375 C11.64169922 17.89208984 11.59980469 17.03808594 11.55664062 16.15820312 C11.51732422 15.26037109 11.47800781 14.36253906 11.4375 13.4375 C11.39431641 12.53580078 11.35113281 11.63410156 11.30664062 10.70507812 C11.20021858 8.47021515 11.09820012 6.23523692 11 4 C10.34 3.67 9.68 3.34 9 3 C9 3.99 9 4.98 9 6 C6.69 6.33 4.38 6.66 2 7 C1.93941406 8.14339844 1.87882812 9.28679688 1.81640625 10.46484375 C1.73201572 11.95574305 1.64736698 13.44662775 1.5625 14.9375 C1.50352539 16.06961914 1.50352539 16.06961914 1.44335938 17.22460938 C1.11328125 22.88671875 1.11328125 22.88671875 0 24 C-2.5 24.125 -2.5 24.125 -5 24 C-6.54950268 22.45049732 -6.21655193 20.90009406 -6.31640625 18.74609375 C-6.35830078 17.89208984 -6.40019531 17.03808594 -6.44335938 16.15820312 C-6.48267578 15.26037109 -6.52199219 14.36253906 -6.5625 13.4375 C-6.62727539 12.08495117 -6.62727539 12.08495117 -6.69335938 10.70507812 C-6.79978142 8.47021515 -6.90179988 6.23523692 -7 4 C-7.66 3.67 -8.32 3.34 -9 3 C-9 2.34 -9 1.68 -9 1 C-5.98675805 -0.50662097 -3.31713623 -0.17770373 0 0 Z " fill="#F1C059" transform="translate(353,522)"/>
<path d="M0 0 C3 1.625 3 1.625 5 5 C5.48629372 8.65777452 5.68832749 12.22909219 5.76171875 15.91796875 C5.6720325 19.10569715 5.6720325 19.10569715 8 21 C6.375 22.5625 6.375 22.5625 4 24 C0.875 23.6875 0.875 23.6875 -2 23 C-4.25740243 22.93462795 -4.25740243 22.93462795 -7.4375 23.6875 C-11 24 -11 24 -12.9375 23 C-14.60791865 19.85568254 -14.42880369 17.49168717 -14 14 C-11.38672985 10.38162594 -8.00993615 8.82269825 -4 7 C-4 6.01 -4 5.02 -4 4 C-4.99 4 -5.98 4 -7 4 C-7.33 5.65 -7.66 7.3 -8 9 C-9.32 8.67 -10.64 8.34 -12 8 C-12.75 6.25 -12.75 6.25 -13 4 C-9.93092012 -1.0221307 -5.32178811 -1.0150291 0 0 Z M-5 11 C-7.36692966 13.84826598 -7.36692966 13.84826598 -6.625 17.1875 C-6.41875 18.115625 -6.2125 19.04375 -6 20 C-5.01 19.34 -4.02 18.68 -3 18 C-2.74984127 14.41642759 -2.74984127 14.41642759 -3 11 C-3.66 11 -4.32 11 -5 11 Z " fill="#E8AC44" transform="translate(525,522)"/>
<path d="M0 0 C3 1.625 3 1.625 5 5 C5.48629372 8.65777452 5.68832749 12.22909219 5.76171875 15.91796875 C5.6720325 19.10569715 5.6720325 19.10569715 8 21 C6.375 22.5625 6.375 22.5625 4 24 C0.875 23.6875 0.875 23.6875 -2 23 C-4.25740243 22.93462795 -4.25740243 22.93462795 -7.4375 23.6875 C-11 24 -11 24 -12.9375 23 C-14.6279784 19.81792301 -14.49557183 17.53094928 -14 14 C-11.59397055 11.52522685 -9.19477774 10.10820986 -6.1875 8.4375 C-5.1046875 7.7259375 -5.1046875 7.7259375 -4 7 C-4 6.01 -4 5.02 -4 4 C-4.99 4 -5.98 4 -7 4 C-7.33 5.65 -7.66 7.3 -8 9 C-9.32 8.67 -10.64 8.34 -12 8 C-12.75 6.25 -12.75 6.25 -13 4 C-9.93092012 -1.0221307 -5.32178811 -1.0150291 0 0 Z M-5 11 C-7.36692966 13.84826598 -7.36692966 13.84826598 -6.625 17.1875 C-6.41875 18.115625 -6.2125 19.04375 -6 20 C-5.01 19.34 -4.02 18.68 -3 18 C-2.74984127 14.41642759 -2.74984127 14.41642759 -3 11 C-3.66 11 -4.32 11 -5 11 Z " fill="#E39F35" transform="translate(630,522)"/>
<path d="M0 0 C3.19978722 2.53316489 5.72892848 4.77810233 6.23828125 8.953125 C6.41729051 14.4929906 5.8033356 17.66842335 2 22 C-0.74519126 24.25497853 -2.29470687 24 -5.9375 24 C-9.62720735 23.38619822 -11.9092866 22.08802483 -14.15625 18.9453125 C-15.84494381 15.05193511 -15.64111887 11.12935704 -15 7 C-11.98105783 0.09956075 -7.03641149 -1.24680274 0 0 Z M-5 3 C-7.77809395 5.77809395 -7.29955703 7.56755203 -7.3125 11.4375 C-7.32925781 12.59121094 -7.34601562 13.74492188 -7.36328125 14.93359375 C-7.27252796 18.00123052 -7.27252796 18.00123052 -5.48046875 19.91015625 C-4.99191406 20.26980469 -4.50335937 20.62945313 -4 21 C-1.6202766 17.43041489 -1.70169659 15.67281698 -1.6875 11.4375 C-1.67074219 10.28121094 -1.65398438 9.12492188 -1.63671875 7.93359375 C-1.75660156 6.96550781 -1.87648438 5.99742187 -2 5 C-2.99 4.34 -3.98 3.68 -5 3 Z " fill="#E4A138" transform="translate(608,522)"/>
<path d="M0 0 C2.25 0.75 2.25 0.75 3.25 1.75 C3.33843793 4.19830426 3.36528752 6.61820599 3.34765625 9.06640625 C3.3462413 9.79746078 3.34482635 10.52851532 3.34336853 11.28172302 C3.33775408 13.62535632 3.32519922 15.96889539 3.3125 18.3125 C3.30748686 19.89778508 3.30292363 21.48307166 3.29882812 23.06835938 C3.28777997 26.9622761 3.27050572 30.85612205 3.25 34.75 C0.375 35.375 0.375 35.375 -2.75 35.75 C-4.75 33.75 -4.75 33.75 -4.97705078 30.76904297 C-4.96657715 29.52268066 -4.95610352 28.27631836 -4.9453125 26.9921875 C-4.9424826 26.32913605 -4.93965271 25.66608459 -4.93673706 24.98294067 C-4.92553435 22.86344417 -4.90043051 20.74436896 -4.875 18.625 C-4.86497028 17.18880818 -4.85584441 15.75260975 -4.84765625 14.31640625 C-4.825595 10.79413372 -4.79106494 7.27210797 -4.75 3.75 C-5.74 3.42 -6.73 3.09 -7.75 2.75 C-3.45967742 -0.31451613 -3.45967742 -0.31451613 0 0 Z " fill="#F0BC56" transform="translate(392.75,510.25)"/>
<path d="M0 0 C2.25 0.75 2.25 0.75 3.25 1.75 C3.33843793 4.19830426 3.36528752 6.61820599 3.34765625 9.06640625 C3.3462413 9.79746078 3.34482635 10.52851532 3.34336853 11.28172302 C3.33775408 13.62535632 3.32519922 15.96889539 3.3125 18.3125 C3.30748686 19.89778508 3.30292363 21.48307166 3.29882812 23.06835938 C3.28777997 26.9622761 3.27050572 30.85612205 3.25 34.75 C0.375 35.375 0.375 35.375 -2.75 35.75 C-4.75 33.75 -4.75 33.75 -4.97705078 30.76904297 C-4.96657715 29.52268066 -4.95610352 28.27631836 -4.9453125 26.9921875 C-4.9424826 26.32913605 -4.93965271 25.66608459 -4.93673706 24.98294067 C-4.92553435 22.86344417 -4.90043051 20.74436896 -4.875 18.625 C-4.86497028 17.18880818 -4.85584441 15.75260975 -4.84765625 14.31640625 C-4.825595 10.79413372 -4.79106494 7.27210797 -4.75 3.75 C-5.74 3.42 -6.73 3.09 -7.75 2.75 C-3.45967742 -0.31451613 -3.45967742 -0.31451613 0 0 Z " fill="#F0BD56" transform="translate(380.75,510.25)"/>
<path d="M0 0 C2.0625 1.25 2.0625 1.25 3 3 C2.84375 4.90625 2.84375 4.90625 2 7 C-0.06640625 8.703125 -0.06640625 8.703125 -2.5625 10.25 C-3.38878906 10.77078125 -4.21507812 11.2915625 -5.06640625 11.828125 C-5.70449219 12.21484375 -6.34257812 12.6015625 -7 13 C-6.17185767 15.4925564 -6.17185767 15.4925564 -5 18 C-1.70111637 19.21537818 0.69183862 19.10272046 4 18 C3.02702707 20.65356255 2.30781348 21.80987991 -0.125 23.3125 C-3.96001824 24.22956958 -7.27896178 24.26035166 -11 23 C-14.18108426 20.34909645 -15.62875605 18.83979305 -16.44140625 14.8125 C-16.72200915 9.45388987 -15.61761182 6.12005791 -12 2 C-8.40961524 -0.8210166 -4.36153217 -0.34615335 0 0 Z M-6 3 C-8.28728734 4.83883881 -8.28728734 4.83883881 -8.125 7.625 C-8.08375 8.40875 -8.0425 9.1925 -8 10 C-6.68 9.34 -5.36 8.68 -4 8 C-4.33 6.35 -4.66 4.7 -5 3 C-5.33 3 -5.66 3 -6 3 Z " fill="#EAAF48" transform="translate(506,522)"/>
<path d="M0 0 C0.99 0 1.98 0 3 0 C3 1.98 3 3.96 3 6 C3.99 6 4.98 6 6 6 C6 5.01 6 4.02 6 3 C7.32 3 8.64 3 10 3 C9.67 4.65 9.34 6.3 9 8 C7.02 8.33 5.04 8.66 3 9 C3.33 14.28 3.66 19.56 4 25 C5.32 24.67 6.64 24.34 8 24 C7.01 26.475 7.01 26.475 6 29 C-0.625 30.25 -0.625 30.25 -4 28 C-4.34057617 26.02880859 -4.34057617 26.02880859 -4.29296875 23.6484375 C-4.28330078 22.79765625 -4.27363281 21.946875 -4.26367188 21.0703125 C-4.23853516 20.18085937 -4.21339844 19.29140625 -4.1875 18.375 C-4.16719727 17.02921875 -4.16719727 17.02921875 -4.14648438 15.65625 C-4.11106925 13.43690211 -4.06168461 11.21874812 -4 9 C-4.99 9 -5.98 9 -7 9 C-7 8.01 -7 7.02 -7 6 C-5.03277992 4.61876037 -3.03131672 3.28511874 -1 2 C-0.67 1.34 -0.34 0.68 0 0 Z " fill="#EBAF49" transform="translate(481,516)"/>
<path d="M0 0 C0.99 0 1.98 0 3 0 C3 1.98 3 3.96 3 6 C3.99 6 4.98 6 6 6 C6 5.01 6 4.02 6 3 C7.32 3 8.64 3 10 3 C9.67 4.65 9.34 6.3 9 8 C7.02 8.33 5.04 8.66 3 9 C3.33 14.28 3.66 19.56 4 25 C5.32 24.67 6.64 24.34 8 24 C7.65660347 26.57547398 7.39993284 27.68894113 5.3125 29.3125 C2.25168069 30.22247331 0.07081966 29.7506448 -3 29 C-4 28 -4 28 -4.11352539 26.14233398 C-4.10828857 25.35157471 -4.10305176 24.56081543 -4.09765625 23.74609375 C-4.09443359 22.89208984 -4.09121094 22.03808594 -4.08789062 21.15820312 C-4.07951172 20.26037109 -4.07113281 19.36253906 -4.0625 18.4375 C-4.05798828 17.53580078 -4.05347656 16.63410156 -4.04882812 15.70507812 C-4.03700225 13.46998686 -4.0205222 11.23502563 -4 9 C-4.99 9 -5.98 9 -7 9 C-7 8.01 -7 7.02 -7 6 C-5.03277992 4.61876037 -3.03131672 3.28511874 -1 2 C-0.67 1.34 -0.34 0.68 0 0 Z " fill="#E29C32" transform="translate(644,516)"/>
<path d="M0 0 C1.4540625 0.0309375 1.4540625 0.0309375 2.9375 0.0625 C3.5625 2.4375 3.5625 2.4375 3.9375 5.0625 C3.2775 5.7225 2.6175 6.3825 1.9375 7.0625 C-0.6875 6.6875 -0.6875 6.6875 -3.0625 6.0625 C-3.44468767 4.40635343 -3.77645102 2.73792976 -4.0625 1.0625 C-3.0625 0.0625 -3.0625 0.0625 0 0 Z " fill="#F0BE59" transform="translate(368.0625,513.9375)"/>
</svg>
